<?xml version="1.0" encoding="utf-8"?>
<!-- Generator: Adobe Illustrator 23.0.2, SVG Export Plug-In . SVG Version: 6.00 Build 0)  -->
<svg version="1.1" id="Layer_1"  x="0px" y="0px"
	 viewBox="0 0 15.8 8" style="enable-background:new 0 0 15.8 8;" xml:space="preserve">
<path class="st0" fill="#414141" d="M0,0.6c0-0.1,0.1-0.3,0.2-0.4c0.2-0.2,0.6-0.2,0.8,0l6.5,6.5c0.1,0.1,0.3,0.2,0.5,0.2c0.2,0,0.3-0.1,0.5-0.2
	l6.5-6.5c0.2-0.2,0.6-0.2,0.8,0c0.2,0.2,0.2,0.6,0,0.8L9.1,7.4C8.8,7.8,8.4,8,7.9,8C7.4,8,7,7.8,6.7,7.4L0.2,0.9
	C0.1,0.8,0,0.7,0,0.6z"/>
</svg>
