<?xml version="1.0" encoding="utf-8"?>
<!-- Generator: Adobe Illustrator 23.0.2, SVG Export Plug-In . SVG Version: 6.00 Build 0)  -->
<svg version="1.1" id="Layer_1" xmlns="http://www.w3.org/2000/svg" xmlns:xlink="http://www.w3.org/1999/xlink" x="0px" y="0px"
	 viewBox="0 0 22.3 24.2" style="enable-background:new 0 0 22.3 24.2;" xml:space="preserve">
<style type="text/css">
	
</style>
<path class="st0" fill="none" stroke="#414141" stroke-miterlimit="10" d="M5.3,3.6c0,0.5-0.4,1-1,1c-0.5,0-1-0.4-1-1V1.5c0-0.5,0.4-1,1-1c0.5,0,1,0.4,1,1V3.6z"/>
<path class="st0" fill="none" stroke="#414141" stroke-miterlimit="10" d="M12.1,3.6c0,0.5-0.4,1-1,1s-1-0.4-1-1V1.5c0-0.5,0.4-1,1-1s1,0.4,1,1V3.6z"/>
<path class="st0" fill="none" stroke="#414141" stroke-miterlimit="10" d="M18.9,3.6c0,0.5-0.4,1-1,1c-0.5,0-1-0.4-1-1V1.5c0-0.5,0.4-1,1-1c0.5,0,1,0.4,1,1V3.6z"/>
<path class="st0" fill="none" stroke="#414141" stroke-miterlimit="10" d="M18.9,2.4h1.6c0.7,0,1.3,0.6,1.3,1.3v18.7c0,0.7-0.6,1.3-1.3,1.3H1.8c-0.7,0-1.3-0.6-1.3-1.3V3.7
	c0-0.7,0.6-1.3,1.3-1.3h1.6"/>
<path class="st0" fill="none" stroke="#414141" stroke-miterlimit="10" d="M10.2,2.4H5.3"/>
<path class="st0" fill="none" stroke="#414141" stroke-miterlimit="10" d="M17,2.4h-4.9"/>
<path class="st0" fill="none" stroke="#414141" stroke-miterlimit="10" d="M0.5,6.8h21.3"/>
<rect x="3.7" y="9.7" class="st1" fill="none" stroke="#414141" stroke-linecap="round" stroke-linejoin="round" stroke-miterlimit="10" width="2.7" height="2.7"/>
<path class="st1" fill="none" stroke="#414141" stroke-linecap="round" stroke-linejoin="round" stroke-miterlimit="10" d="M7.7,9.7h2.7v2.7H7.7V9.7z"/>
<path class="st1" fill="none" stroke="#414141" stroke-linecap="round" stroke-linejoin="round" stroke-miterlimit="10" d="M11.8,9.7h2.7v2.7h-2.7V9.7z"/>
<path class="st1" fill="none" stroke="#414141" stroke-linecap="round" stroke-linejoin="round" stroke-miterlimit="10" d="M3.7,13.9h2.7v2.7H3.7V13.9z"/>
<path class="st1" fill="none" stroke="#414141" stroke-linecap="round" stroke-linejoin="round" stroke-miterlimit="10" d="M7.7,13.9h2.7v2.7H7.7V13.9z"/>
<path class="st1" fill="none" stroke="#414141" stroke-linecap="round" stroke-linejoin="round" stroke-miterlimit="10" d="M11.8,13.9h2.7v2.7h-2.7V13.9z"/>
<path class="st1" fill="none" stroke="#414141" stroke-linecap="round" stroke-linejoin="round" stroke-miterlimit="10" d="M15.9,9.7h2.7v2.7h-2.7V9.7z"/>
<path class="st1" fill="none" stroke="#414141" stroke-linecap="round" stroke-linejoin="round" stroke-miterlimit="10" d="M15.9,13.9h2.7v2.7h-2.7V13.9z"/>
<path class="st1" fill="none" stroke="#414141" stroke-linecap="round" stroke-linejoin="round" stroke-miterlimit="10" d="M3.7,18h2.7v2.7H3.7V18z"/>
<path class="st1" fill="none" stroke="#414141" stroke-linecap="round" stroke-linejoin="round" stroke-miterlimit="10" d="M7.7,18h2.7v2.7H7.7V18z"/>
<path class="st1" fill="none" stroke="#414141" stroke-linecap="round" stroke-linejoin="round" stroke-miterlimit="10" d="M11.8,18h2.7v2.7h-2.7V18z"/>
</svg>
