<?xml version="1.0" encoding="utf-8"?>
<!-- Generator: Adobe Illustrator 23.0.2, SVG Export Plug-In . SVG Version: 6.00 Build 0)  -->
<svg version="1.1" id="Layer_1"  x="0px" y="0px"
	 viewBox="0 0 13.2 13.2" style="enable-background:new 0 0 13.2 13.2;" xml:space="preserve">
<path class="st0" fill-rule="evenodd" clip-rule="evenodd" fill="#FFFFFF" d="M0.7,0C0.7,0,0.8,0,0.7,0C1,0,1.2,0.1,1.3,0.2l5.3,5.3l5.3-5.3C12,0.1,12.2,0,12.4,0c0.3,0,0.6,0.2,0.7,0.5
	c0.1,0.3,0.1,0.6-0.2,0.9L7.7,6.6l5.3,5.3c0.1,0.1,0.2,0.3,0.2,0.6c0,0.2-0.1,0.4-0.2,0.6c-0.1,0.1-0.3,0.2-0.6,0.2S12,13.1,11.9,13
	L6.6,7.7L1.3,13c-0.3,0.3-0.8,0.3-1.1,0c-0.3-0.3-0.3-0.8,0-1.1l5.3-5.3L0.2,1.3C0,1.1-0.1,0.8,0,0.5C0.1,0.2,0.4,0,0.7,0L0.7,0z"/>
</svg>
