<?xml version="1.0" encoding="utf-8"?>
<!-- Generator: Adobe Illustrator 23.0.2, SVG Export Plug-In . SVG Version: 6.00 Build 0)  -->
<svg version="1.1" id="Layer_1" x="0px" y="0px"
	 viewBox="0 0 8 15.9" style="enable-background:new 0 0 8 15.9;" xml:space="preserve">
<path class="st0" fill="#424242" d="M0.6,15.9c-0.1,0-0.3-0.1-0.4-0.2c-0.2-0.2-0.2-0.6,0-0.8l6.5-6.5C6.8,8.4,6.8,8.1,6.8,8c0-0.2-0.1-0.3-0.2-0.5
	L0.2,1c-0.2-0.2-0.2-0.6,0-0.8s0.6-0.2,0.8,0l6.4,6.7C7.8,7.2,8,7.6,8,8.1S7.8,8.9,7.4,9.3l-6.5,6.5C0.8,15.9,0.7,15.9,0.6,15.9z"/>
</svg>
