<?xml version="1.0" encoding="utf-8"?>
<!-- Generator: Adobe Illustrator 23.0.2, SVG Export Plug-In . SVG Version: 6.00 Build 0)  -->
<svg version="1.1" id="Layer_1"  x="0px" y="0px"
	 viewBox="0 0 8 15.9" style="enable-background:new 0 0 8 15.9;" xml:space="preserve">
<path class="st0" fill="#424242" d="M7.1,15.8L0.6,9.3C0.2,8.9,0,8.6,0,8.1c0-0.5,0.2-0.9,0.6-1.2L7,0.1C7.2,0,7.6,0,7.8,0.1S8,0.8,7.8,1L1.3,7.5
	C1.2,7.7,1.1,7.8,1.1,8c0,0.2,0.1,0.4,0.2,0.5l6.5,6.5c0.2,0.2,0.2,0.6,0,0.8c-0.1,0.1-0.3,0.2-0.4,0.2S7.2,15.9,7.1,15.8z"/>
</svg>
