<?xml version="1.0" encoding="utf-8"?>
<!-- Generator: Adobe Illustrator 23.0.2, SVG Export Plug-In . SVG Version: 6.00 Build 0)  -->
<svg version="1.1" id="Layer_1" xmlns="http://www.w3.org/2000/svg" xmlns:xlink="http://www.w3.org/1999/xlink" x="0px" y="0px"
	 viewBox="0 0 21 21" style="enable-background:new 0 0 21 21;" xml:space="preserve">
<path fill="#414141" class="st0" d="M8.2,1.3c3.8,0,6.9,3.1,6.9,6.9s-3.1,6.9-6.9,6.9c-3.8,0-6.9-3.1-6.9-6.9S4.4,1.3,8.2,1.3z M8.2,0
	C3.7,0,0,3.7,0,8.2c0,4.5,3.7,8.2,8.2,8.2c2,0,3.9-0.7,5.3-2l6.4,6.4c0.3,0.3,0.7,0.3,0.9,0c0.3-0.3,0.3-0.7,0-0.9l-6.4-6.4
	c1.2-1.4,2-3.3,2-5.3C16.4,3.7,12.7,0,8.2,0L8.2,0z"/>
</svg>
