<?xml version="1.0" encoding="utf-8"?>
<!-- Generator: Adobe Illustrator 23.0.2, SVG Export Plug-In . SVG Version: 6.00 Build 0)  -->
<svg version="1.1" id="Layer_1" xmlns="http://www.w3.org/2000/svg" xmlns:xlink="http://www.w3.org/1999/xlink" x="0px" y="0px"
	 viewBox="0 0 19.1 16.9" style="enable-background:new 0 0 19.1 16.9;" xml:space="preserve">
<linearGradient id="SVGID_1_" gradientUnits="userSpaceOnUse" x1="-1224.7731" y1="995.8253" x2="-1224.7731" y2="979.298" gradientTransform="matrix(1 0 0 -1 1234.3 996.0254)">
	<stop  offset="0" style="stop-color:#FBFCFC"/>
	<stop  offset="0.1842" style="stop-color:#FFFBFA"/>
	<stop  offset="1" style="stop-color:#FFFFFF"/>
</linearGradient>
<path class="st0" fill="url(#SVGID_1_)" d="M5.5,1.1c-2.5,0-4.4,2-4.4,4.6c0,2.1,1.1,4.2,3.2,6.3c1.9,1.8,4.1,3.1,5.2,3.7c1.2-0.6,3.4-1.9,5.2-3.7
	c2.1-2.1,3.2-4.2,3.2-6.3c0-2.6-1.9-4.6-4.4-4.6c-1.6,0-2.6,0.7-3.6,2.3C9.9,3.6,9.7,3.7,9.5,3.7c-0.2,0-0.4-0.1-0.5-0.3
	C8.1,1.8,7.1,1.1,5.5,1.1z M9.5,16.8c-0.1,0-0.2,0-0.2-0.1c-1.3-0.6-3.7-2-5.7-4.1c-2.3-2.3-3.5-4.6-3.5-7c0-1.5,0.5-2.9,1.5-3.9
	c1-1.1,2.4-1.7,3.9-1.7c1.6,0,3,0.7,4,2.2c1.1-1.5,2.4-2.2,4-2.2c1.5,0,2.9,0.6,3.9,1.7c1,1,1.5,2.4,1.5,3.9c0,2.4-1.2,4.7-3.5,7
	c-2.1,2-4.5,3.4-5.7,4.1C9.7,16.8,9.6,16.8,9.5,16.8z"/>
<path class="st1" fill="#FFFFFF" d="M9.5,3.8C9.3,3.8,9.1,3.7,9,3.5C8,1.9,7,1.2,5.5,1.2c-2.8,0-4.3,2.2-4.3,4.5c0,2.1,1.1,4.1,3.1,6.2
	c1.8,1.8,4,3.1,5.2,3.7c1.2-0.6,3.3-1.9,5.2-3.7c2.1-2,3.1-4.1,3.1-6.2c0-2.2-1.5-4.5-4.3-4.5c-1.5,0-2.5,0.6-3.5,2.2
	C10,3.7,9.7,3.8,9.5,3.8z M5.5,0c1.6,0,3,0.7,4,2.1c1.1-1.4,2.4-2.1,4-2.1c1.6,0,3,0.6,4,1.7c1,1.1,1.5,2.5,1.5,4
	c0,2.4-1.2,4.8-3.5,7.1c-2.1,2-4.5,3.4-5.7,4.1c-0.1,0-0.2,0.1-0.3,0.1s-0.2,0-0.3-0.1c-1.3-0.7-3.7-2-5.7-4.1C1.2,10.5,0,8.1,0,5.7
	c0-1.5,0.5-2.9,1.5-4C2.5,0.6,3.9,0,5.5,0z M9.5,3.6c0.1,0,0.3-0.1,0.4-0.2C10.7,2,11.7,1,13.6,1C16.3,1,18,3.2,18,5.7
	c0,2.4-1.4,4.6-3.2,6.3c-1.7,1.7-3.8,3-5.3,3.8C8,15,6,13.7,4.2,12C2.4,10.3,1,8.1,1,5.7C1,3.2,2.8,1,5.5,1C7.3,1,8.3,2,9.2,3.4
	C9.2,3.5,9.4,3.6,9.5,3.6 M5.5,0.2c-3.2,0-5.3,2.6-5.3,5.5c0,2.7,1.5,5.1,3.4,6.9s4.1,3.2,5.7,4c0.1,0,0.1,0,0.2,0
	c0.1,0,0.1,0,0.2,0c1.5-0.8,3.8-2.2,5.7-4c1.9-1.9,3.4-4.2,3.4-6.9c0-2.9-2.1-5.5-5.3-5.5c-1.9,0-3.1,1-4,2.2
	C8.6,1.2,7.4,0.2,5.5,0.2"/>
</svg>
